<svg id="visual" viewBox="0 0 1500 540" width="1500" height="540" xmlns="http://www.w3.org/2000/svg" xmlns:xlink="http://www.w3.org/1999/xlink" version="1.1"><path d="M0 172L35.7 180.3C71.3 188.7 142.7 205.3 214.2 200C285.7 194.7 357.3 167.3 428.8 158.5C500.3 149.7 571.7 159.3 643 172.7C714.3 186 785.7 203 857 199.7C928.3 196.3 999.7 172.7 1071.2 173.2C1142.7 173.7 1214.3 198.3 1285.8 205.5C1357.3 212.7 1428.7 202.3 1464.3 197.2L1500 192L1500 0L1464.3 0C1428.7 0 1357.3 0 1285.8 0C1214.3 0 1142.7 0 1071.2 0C999.7 0 928.3 0 857 0C785.7 0 714.3 0 643 0C571.7 0 500.3 0 428.8 0C357.3 0 285.7 0 214.2 0C142.7 0 71.3 0 35.7 0L0 0Z" fill="#325051"></path><path d="M0 126L35.7 125.3C71.3 124.7 142.7 123.3 214.2 126C285.7 128.7 357.3 135.3 428.8 133.3C500.3 131.3 571.7 120.7 643 114.7C714.3 108.7 785.7 107.3 857 109C928.3 110.7 999.7 115.3 1071.2 125.8C1142.7 136.3 1214.3 152.7 1285.8 159.8C1357.3 167 1428.7 165 1464.3 164L1500 163L1500 0L1464.3 0C1428.7 0 1357.3 0 1285.8 0C1214.3 0 1142.7 0 1071.2 0C999.7 0 928.3 0 857 0C785.7 0 714.3 0 643 0C571.7 0 500.3 0 428.8 0C357.3 0 285.7 0 214.2 0C142.7 0 71.3 0 35.7 0L0 0Z" fill="#425852"></path><path d="M0 132L35.7 127.8C71.3 123.7 142.7 115.3 214.2 115.7C285.7 116 357.3 125 428.8 129.8C500.3 134.7 571.7 135.3 643 129.7C714.3 124 785.7 112 857 108.5C928.3 105 999.7 110 1071.2 116C1142.7 122 1214.3 129 1285.8 133.8C1357.3 138.7 1428.7 141.3 1464.3 142.7L1500 144L1500 0L1464.3 0C1428.7 0 1357.3 0 1285.8 0C1214.3 0 1142.7 0 1071.2 0C999.7 0 928.3 0 857 0C785.7 0 714.3 0 643 0C571.7 0 500.3 0 428.8 0C357.3 0 285.7 0 214.2 0C142.7 0 71.3 0 35.7 0L0 0Z" fill="#535f55"></path><path d="M0 62L35.7 63.7C71.3 65.3 142.7 68.7 214.2 68.3C285.7 68 357.3 64 428.8 66.3C500.3 68.7 571.7 77.3 643 76.3C714.3 75.3 785.7 64.7 857 58.7C928.3 52.7 999.7 51.3 1071.2 56.8C1142.7 62.3 1214.3 74.7 1285.8 76.3C1357.3 78 1428.7 69 1464.3 64.5L1500 60L1500 0L1464.3 0C1428.7 0 1357.3 0 1285.8 0C1214.3 0 1142.7 0 1071.2 0C999.7 0 928.3 0 857 0C785.7 0 714.3 0 643 0C571.7 0 500.3 0 428.8 0C357.3 0 285.7 0 214.2 0C142.7 0 71.3 0 35.7 0L0 0Z" fill="#62665c"></path><path d="M0 29L35.7 32.8C71.3 36.7 142.7 44.3 214.2 50C285.7 55.7 357.3 59.3 428.8 57.8C500.3 56.3 571.7 49.7 643 48.8C714.3 48 785.7 53 857 52.5C928.3 52 999.7 46 1071.2 43.2C1142.7 40.3 1214.3 40.7 1285.8 44.7C1357.3 48.7 1428.7 56.3 1464.3 60.2L1500 64L1500 0L1464.3 0C1428.7 0 1357.3 0 1285.8 0C1214.3 0 1142.7 0 1071.2 0C999.7 0 928.3 0 857 0C785.7 0 714.3 0 643 0C571.7 0 500.3 0 428.8 0C357.3 0 285.7 0 214.2 0C142.7 0 71.3 0 35.7 0L0 0Z" fill="#706e66"></path></svg>